<?xml version="1.0" encoding="UTF-8"?><svg id="_レイヤー_2" xmlns="http://www.w3.org/2000/svg" xmlns:xlink="http://www.w3.org/1999/xlink" viewBox="0 0 86 86"><defs><style>.cls-1{clip-path:url(#clippath);}.cls-2{fill:none;}.cls-2,.cls-3,.cls-4{stroke-width:0px;}.cls-4{fill:#eddb3a;}</style><clipPath id="clippath"><rect class="cls-2" width="86" height="86"/></clipPath></defs><g id="_アイコン類"><g id="_3"><g class="cls-1"><path class="cls-3" d="M74.75,20.59c0,7.91-3.34,15.02-8.59,18.46v39.89c0,3.79-3.07,6.87-6.86,6.87s-6.86-3.08-6.86-6.87v-39.89c-5.25-3.44-8.59-10.55-8.59-18.46,0-11.35,6.93-20.59,15.45-20.59s15.45,9.24,15.45,20.59ZM63.61,36.59c4.61-2.57,7.7-9,7.7-16,0-9.46-5.39-17.16-12.01-17.16s-12.01,7.7-12.01,17.16c0,7,3.09,13.43,7.7,16,.54.3.88.88.88,1.5v40.85c0,1.9,1.54,3.44,3.43,3.44s3.43-1.54,3.43-3.44v-40.85c0-.62.34-1.2.88-1.5Z"/><path class="cls-4" d="M71.31,20.59c0,7-3.09,13.43-7.7,16-.54.3-.88.88-.88,1.5v40.85c0,1.9-1.54,3.44-3.43,3.44s-3.43-1.54-3.43-3.44v-40.85c0-.62-.34-1.2-.88-1.5-4.61-2.57-7.7-9-7.7-16,0-9.46,5.39-17.16,12.01-17.16s12.01,7.7,12.01,17.16Z"/><path class="cls-3" d="M35.27,1.72v27.45c0,3.93-1.95,7.62-5.14,9.85v39.92c0,3.79-3.08,6.87-6.87,6.87s-6.86-3.08-6.86-6.87v-39.92c-3.2-2.23-5.15-5.92-5.15-9.85V1.72c0-.95.76-1.72,1.71-1.72s1.72.77,1.72,1.72v22.31h6.86V1.72c0-.95.77-1.72,1.72-1.72s1.72.77,1.72,1.72v22.31h6.86V1.72c0-.95.77-1.72,1.72-1.72s1.71.77,1.71,1.72ZM31.84,29.17v-1.71H14.68v1.71c0,3.05,1.64,5.9,4.29,7.43.53.3.86.87.86,1.48v40.86c0,1.9,1.54,3.44,3.43,3.44s3.43-1.54,3.43-3.44v-40.86c0-.61.33-1.18.86-1.48,2.65-1.53,4.29-4.38,4.29-7.43Z"/><path class="cls-4" d="M31.84,27.46v1.71c0,3.05-1.64,5.9-4.29,7.43-.53.3-.86.87-.86,1.48v40.86c0,1.9-1.54,3.44-3.43,3.44s-3.43-1.54-3.43-3.44v-40.86c0-.61-.33-1.18-.86-1.48-2.65-1.53-4.29-4.38-4.29-7.43v-1.71h17.16Z"/></g></g></g></svg>