<?xml version="1.0" encoding="UTF-8"?><svg id="_レイヤー_2" xmlns="http://www.w3.org/2000/svg" xmlns:xlink="http://www.w3.org/1999/xlink" viewBox="0 0 86 86"><defs><style>.cls-1{clip-path:url(#clippath);}.cls-2{fill:none;}.cls-2,.cls-3,.cls-4{stroke-width:0px;}.cls-4{fill:#eddb3a;}</style><clipPath id="clippath"><rect class="cls-2" width="86" height="86"/></clipPath></defs><g id="_アイコン類"><g id="_6"><g class="cls-1"><path class="cls-4" d="M75.25,7.02c1.99,1.99,1.99,5.22,0,7.21l-21.54,21.55-7.21-7.21,18.05-18.04,3.5-3.51c1.99-1.98,5.22-1.98,7.2,0Z"/><path class="cls-4" d="M51.37,38.11l-15.4,15.41c-7.03,7.03-15.11,12.69-24.07,16.86,4.17-8.96,9.83-17.04,16.86-24.07l15.4-15.41,7.21,7.21Z"/><path class="cls-3" d="M78.4,82.53c.91,0,1.65.74,1.65,1.65s-.74,1.65-1.65,1.65H5.87c-.92,0-1.65-.74-1.65-1.65s.73-1.65,1.65-1.65h72.53Z"/><path class="cls-3" d="M68.05,7.02l-3.5,3.51h-.01c.65-.65.65-1.7,0-2.34l-1.16-1.16,2.33-2.34c3.28-3.28,8.6-3.28,11.88,0s3.27,8.6,0,11.88l-22.72,22.71c.65-.64.65-1.69,0-2.33l-1.16-1.17,21.54-21.55c1.99-1.99,1.99-5.22,0-7.21s-5.21-1.98-7.2,0Z"/><path class="cls-3" d="M64.54,8.19c.65.64.65,1.69,0,2.33-.32.33-.74.49-1.16.49s-.85-.16-1.17-.49l-1.17-1.16,2.34-2.33,1.16,1.16Z"/><polygon class="cls-3" points="63.38 7.03 61.04 9.36 59.15 7.47 61.49 5.14 63.38 7.03"/><path class="cls-3" d="M57.98,3.97l3.49-3.49c.64-.64,1.69-.64,2.33,0s.65,1.69,0,2.34l-2.31,2.32-1.17-1.17c-.65-.65-1.69-.65-2.34,0Z"/><path class="cls-3" d="M61.49,5.14l-2.34,2.33-1.17-1.17c-.64-.65-.64-1.69,0-2.33s1.69-.65,2.34,0l1.17,1.17Z"/><path class="cls-3" d="M57.98,6.3l1.17,1.17-23.85,23.85c-.32.32-.74.48-1.16.48s-.85-.16-1.17-.48c-.65-.65-.65-1.69,0-2.34L57.98,3.97c-.64.64-.64,1.68,0,2.33Z"/><path class="cls-3" d="M54.87,36.95c.65.64.65,1.69,0,2.33-.32.32-.74.48-1.16.48s-.85-.16-1.17-.48l-1.17-1.17-7.21-7.21-1.16-1.16c-.31-.31-.49-.73-.49-1.17s.18-.86.49-1.17c.61-.62,1.71-.62,2.33,0l1.17,1.17,7.21,7.21,1.16,1.17Z"/><path class="cls-3" d="M63.38,11.01c.42,0,.84-.16,1.16-.49h.01s-18.05,18.05-18.05,18.05l-1.17-1.17c-.62-.62-1.72-.62-2.33,0l18.04-18.04,1.17,1.16c.32.33.74.49,1.17.49Z"/><path class="cls-3" d="M9.87,72.41c.64.64.64,1.69,0,2.33l-.23.23c-.1.05-.21.09-.31.13-.2.09-.42.13-.63.13-.43,0-.85-.17-1.16-.49-.47-.47-.62-1.17-.37-1.79.04-.1.08-.19.12-.29l.25-.25c.64-.65,1.69-.65,2.33,0Z"/><path class="cls-3" d="M38.3,55.86c-8.24,8.24-17.88,14.68-28.66,19.11l.23-.23c.64-.64.64-1.69,0-2.33-.64-.65-1.69-.65-2.33,0l-.25.25c4.45-10.78,10.88-20.43,19.13-28.68l16.58-16.58c-.31.31-.49.73-.49,1.17s.18.86.49,1.17l1.16,1.16-15.4,15.41c-7.03,7.03-12.69,15.11-16.86,24.07,8.96-4.17,17.04-9.83,24.07-16.86l15.4-15.41,1.17,1.17c.32.32.74.48,1.17.48s.84-.16,1.16-.48l-16.57,16.58Z"/><path class="cls-3" d="M8.7,75.23c.21,0,.43-.04.63-.13.1-.04.21-.08.31-.13l-2.61,2.61c-.32.32-.74.48-1.16.48s-.85-.16-1.17-.48c-.65-.65-.65-1.69,0-2.33l2.59-2.59c-.04.1-.08.19-.12.29-.25.62-.1,1.32.37,1.79.31.32.73.49,1.16.49Z"/></g></g></g></svg>