<?xml version="1.0" encoding="UTF-8"?>
<svg id="_レイヤー_2" data-name="レイヤー 2" xmlns="http://www.w3.org/2000/svg" viewBox="0 0 84 85">
  <defs>
    <style>
      .cls-1 {
        fill: #fff;
        stroke-width: 0px;
      }
    </style>
  </defs>
  <g id="_レイヤー_2-2" data-name="レイヤー 2">
    <g>
      <path class="cls-1" d="M84,85H24V0h60v85ZM28,81h52V4H28v77Z"/>
      <g>
        <rect class="cls-1" x="34.6" y="12" width="6.4" height="4"/>
        <rect class="cls-1" x="45.5" y="12" width="6.5" height="4"/>
        <rect class="cls-1" x="56.3" y="12" width="5.7" height="4"/>
        <rect class="cls-1" x="67.2" y="12" width="6.8" height="4"/>
      </g>
      <g>
        <rect class="cls-1" x="34.6" y="26" width="6.4" height="4"/>
        <rect class="cls-1" x="45.5" y="26" width="6.5" height="4"/>
        <rect class="cls-1" x="56.3" y="26" width="5.7" height="4"/>
        <rect class="cls-1" x="67.2" y="26" width="6.8" height="4"/>
      </g>
      <g>
        <rect class="cls-1" x="34.6" y="40" width="6.4" height="4"/>
        <rect class="cls-1" x="45.5" y="40" width="6.5" height="4"/>
        <rect class="cls-1" x="56.3" y="40" width="5.7" height="4"/>
        <rect class="cls-1" x="67.2" y="40" width="6.8" height="4"/>
      </g>
      <g>
        <rect class="cls-1" x="34.6" y="54" width="6.4" height="4"/>
        <rect class="cls-1" x="45.5" y="54" width="6.5" height="4"/>
        <rect class="cls-1" x="56.3" y="54" width="5.7" height="4"/>
        <rect class="cls-1" x="67.2" y="54" width="6.8" height="4"/>
      </g>
      <path class="cls-1" d="M0,26v59h28V26H0ZM20,70h-11v-4h11v4ZM20,60h-11v-4h11v4ZM20,50h-11v-4h11v4ZM20,40h-11v-4h11v4Z"/>
    </g>
  </g>
</svg>