<?xml version="1.0" encoding="UTF-8"?>
<svg id="_レイヤー_2" data-name="レイヤー 2" xmlns="http://www.w3.org/2000/svg" viewBox="0 0 84 84">
  <defs>
    <style>
      .cls-1, .cls-2 {
        stroke-width: 0px;
      }

      .cls-2 {
        fill: #f1d229;
      }
    </style>
  </defs>
  <g id="_レイヤー_2-2" data-name="レイヤー 2">
    <g>
      <path class="cls-1" d="M42,84C18.8,84,0,65.2,0,42S18.8,0,42,0s42,18.8,42,42-18.8,42-42,42ZM42,4C21,4,4,21,4,42s17,38,38,38,38-17,38-38S63,4,42,4Z"/>
      <g>
        <path class="cls-2" d="M63.6,48.9c1.1,0,1.9,1.1,1.5,2.1-3.3,9.6-12.4,16.4-23.1,16.4s-19.8-6.9-23.1-16.4c-.4-1,.4-2.1,1.5-2.1h43.2Z"/>
        <path class="cls-1" d="M42,69.4c-11.3,0-21.3-7.1-25-17.8-.4-1.1-.2-2.3.5-3.3.7-.9,1.8-1.5,2.9-1.5h43.2c1.2,0,2.3.6,2.9,1.5.7.9.9,2.2.5,3.3-3.7,10.6-13.7,17.8-25,17.8ZM21,50.9c3.3,8.7,11.7,14.6,21,14.6s17.8-5.8,21-14.6H21Z"/>
      </g>
      <path class="cls-1" d="M35,37.4h-4c0-1.1-.3-1.9-1-2.5-.6-.5-1.4-.8-2.3-.8-1.5,0-3.3.9-3.3,3.3h-4c0-4.8,3.7-7.3,7.3-7.3s7.3,2.5,7.3,7.3Z"/>
      <path class="cls-1" d="M64.6,37.4h-4c0-1.1-.3-1.9-1-2.5-.6-.5-1.4-.8-2.3-.8-1.5,0-3.3.9-3.3,3.3h-4c0-4.8,3.7-7.3,7.3-7.3s7.3,2.5,7.3,7.3Z"/>
    </g>
  </g>
</svg>