<?xml version="1.0" encoding="UTF-8"?><svg id="_レイヤー_2" xmlns="http://www.w3.org/2000/svg" xmlns:xlink="http://www.w3.org/1999/xlink" viewBox="0 0 86 86"><defs><style>.cls-1{clip-path:url(#clippath);}.cls-2{fill:none;}.cls-2,.cls-3{stroke-width:0px;}.cls-3{fill:#fff;}</style><clipPath id="clippath"><rect class="cls-2" width="86" height="86"/></clipPath></defs><g id="_アイコン類"><g id="_5-2"><g class="cls-1"><path class="cls-3" d="M80.44,27.01c3.39,2.05,5.52,5.75,5.52,9.78s-2.12,7.73-5.52,9.78c.37,1.12.55,2.29.55,3.48,0,6.31-5.13,11.44-11.44,11.44h-8.44v-1.49c0-.53-.28-1-.7-1.27.09-.08.17-.15.26-.22h8.88c4.66,0,8.45-3.8,8.45-8.46,0-1.22-.26-2.42-.79-3.55-.17-.37-.18-.78-.05-1.15.14-.37.42-.68.79-.84,3.06-1.36,5.03-4.39,5.03-7.73s-1.97-6.35-5.03-7.72c-.37-.16-.64-.46-.79-.84-.13-.37-.12-.79.05-1.15.53-1.13.79-2.33.79-3.55,0-4.66-3.79-8.46-8.45-8.46-.83,0-1.5-.66-1.5-1.49,0-4.66-3.79-8.46-8.45-8.46-2.53,0-4.9,1.12-6.5,3.06-.49-.9-1.1-1.73-1.8-2.47,2.14-2.26,5.12-3.57,8.3-3.57,5.83,0,10.66,4.38,11.35,10.03,5.64.69,10.03,5.52,10.03,11.35,0,1.18-.18,2.35-.55,3.48Z"/><path class="cls-3" d="M77.95,29.06c3.06,1.36,5.03,4.39,5.03,7.72s-1.97,6.36-5.03,7.73c-.37.15-.64.46-.79.84-.13.37-.12.79.05,1.15.53,1.12.79,2.33.79,3.55,0,4.66-3.79,8.46-8.45,8.46h-8.88c.12-.12.26-.25.38-.37s.26-.26.37-.39c.5-.55.94-1.13,1.32-1.76.09-.13.16-.27.23-.4.12-.21.23-.42.33-.63.08-.13.13-.28.19-.42,0-.02.02-.03.02-.04.07-.16.13-.33.19-.5.07-.17.12-.35.18-.53s.11-.37.15-.55c.24-.91.37-1.87.37-2.85,0-1.19-.18-2.35-.55-3.48,3.39-2.06,5.52-5.76,5.52-9.78s-2.12-7.73-5.52-9.78c.37-1.12.55-2.3.55-3.48,0-5.83-4.38-10.66-10.03-11.35-.07-.53-.16-1.05-.3-1.56-.1-.34-.19-.66-.32-.99h0c-.18-.49-.38-.95-.63-1.4,0-.02-.02-.03-.02-.05,1.6-1.93,3.97-3.06,6.5-3.06,4.66,0,8.45,3.8,8.45,8.46,0,.83.67,1.49,1.5,1.49,4.66,0,8.45,3.8,8.45,8.46,0,1.22-.26,2.41-.79,3.55-.17.37-.18.78-.05,1.15.14.37.42.67.79.84Z"/><path class="cls-3" d="M63.86,27.01c3.39,2.05,5.52,5.75,5.52,9.78s-2.12,7.73-5.52,9.78c.37,1.12.55,2.29.55,3.48,0,.98-.12,1.94-.37,2.85-.05.18-.1.37-.15.55-.06.17-.12.36-.18.53-.06.16-.12.34-.19.5,0,0,0,.02-.02.04-.06.14-.12.28-.19.42-.1.21-.2.42-.33.63-.07.13-.14.27-.23.4-.37.62-.82,1.21-1.32,1.76-.12.13-.25.27-.37.39s-.26.25-.38.37c-.09.07-.17.14-.26.22-.23-.15-.51-.24-.81-.24-.83,0-1.51.68-1.51,1.51v.27c-1.55.78-3.29,1.22-5.12,1.22-.83,0-1.49-.66-1.49-1.49s.66-1.49,1.49-1.49c4.66,0,8.46-3.8,8.46-8.46,0-1.22-.27-2.42-.8-3.55-.16-.37-.18-.78-.04-1.15.13-.37.42-.68.79-.84,3.05-1.36,5.02-4.39,5.02-7.73s-1.97-6.35-5.02-7.72c-.37-.16-.65-.46-.79-.84-.14-.37-.12-.79.04-1.15.53-1.13.8-2.33.8-3.55,0-4.66-3.8-8.46-8.46-8.46-.83,0-1.49-.66-1.49-1.49,0-.17,0-.34-.02-.5,0-.12,0-.24-.03-.37-.04-.42-.12-.84-.22-1.24-.03-.13-.07-.27-.12-.4-.06-.2-.12-.39-.2-.59-.07-.16-.13-.33-.22-.49-.08-.18-.17-.37-.27-.55-.11-.18-.22-.37-.34-.54-.33-.5-.33-1.15,0-1.64.37-.56.79-1.09,1.24-1.56.7.74,1.31,1.57,1.8,2.47,0,.02,0,.03.02.05.24.45.45.91.63,1.39h0c.12.34.22.66.32,1,.13.51.23,1.03.3,1.56,5.65.69,10.03,5.52,10.03,11.35,0,1.18-.18,2.35-.55,3.48Z"/><path class="cls-3" d="M63.89,53.45c.06-.18.11-.37.15-.55-.05.18-.1.37-.15.55Z"/><path class="cls-3" d="M63.71,53.98c.07-.17.12-.36.18-.53-.06.18-.12.36-.18.53Z"/><path class="cls-3" d="M63.51,54.48c.07-.16.13-.34.19-.5-.06.17-.12.34-.19.5Z"/><path class="cls-3" d="M63.49,54.51c-.06.14-.12.29-.19.42.07-.14.13-.28.19-.42Z"/><path class="cls-3" d="M62.74,55.98c.09-.13.16-.27.23-.4-.07.13-.14.27-.23.4Z"/><path class="cls-3" d="M61.05,58.13c.12-.12.26-.26.37-.39-.12.13-.25.27-.37.39Z"/><path class="cls-3" d="M61.11,61.48v21.71c0,.83-.68,1.51-1.51,1.51s-1.51-.68-1.51-1.51v-21.71h3.02Z"/><path class="cls-3" d="M61.11,59.99v1.49h-3.02v-1.22c.84-.41,1.61-.93,2.32-1.54.42.27.7.74.7,1.27Z"/><path class="cls-3" d="M59.6,58.48c.3,0,.58.09.81.24-.7.61-1.48,1.12-2.32,1.54v-.27c0-.83.68-1.51,1.51-1.51Z"/><path class="cls-3" d="M58.09,60.26v1.22h-5.12c1.84,0,3.58-.44,5.12-1.22Z"/><path class="cls-3" d="M53.76,9.63c.12.33.22.65.32.99-.1-.34-.2-.66-.32-.99Z"/><path class="cls-3" d="M53.76,9.62c-.18-.48-.39-.94-.63-1.39.25.45.45.91.63,1.39Z"/><path class="cls-3" d="M44.53,58.5h8.44c-.83,0-1.49.66-1.49,1.49s.66,1.49,1.49,1.49h-8.44v-2.98Z"/><path class="cls-3" d="M51.46,13.08c0-.12,0-.24-.03-.37.02.12.03.25.03.37Z"/><path class="cls-3" d="M51.21,11.47c-.03-.13-.07-.27-.12-.4.05.13.09.27.12.4Z"/><path class="cls-3" d="M43.02,2.14c3.26,0,6.21,1.36,8.29,3.57-.45.47-.87,1-1.24,1.56-.33.49-.33,1.14,0,1.64-1.52-2.28-4.11-3.79-7.05-3.79s-5.53,1.51-7.05,3.79c.34-.5.34-1.15,0-1.65-.37-.56-.78-1.08-1.23-1.55,2.08-2.2,5.02-3.57,8.28-3.57Z"/><path class="cls-3" d="M50.72,29.09c.59.58.59,1.55,0,2.12l-6.19,6.19v-4.27l4.06-4.05c.59-.59,1.55-.59,2.13,0Z"/><path class="cls-3" d="M50.72,42.35c.59.59.59,1.56,0,2.13l-6.19,6.19v-4.27l4.06-4.06c.59-.58,1.55-.58,2.13,0Z"/><path class="cls-3" d="M50.89,10.48c-.07-.16-.14-.33-.22-.49.09.16.15.33.22.49Z"/><path class="cls-3" d="M50.67,9.99c-.09-.18-.17-.37-.27-.55.1.18.19.37.27.55Z"/><path class="cls-3" d="M44.53,61.48v21.71c0,.83-.68,1.51-1.51,1.51s-1.51-.68-1.51-1.51v-21.71h3.02Z"/><rect class="cls-3" x="41.51" y="58.5" width="3.02" height="2.98"/><path class="cls-3" d="M44.53,50.67v7.83h-3.02v-7.85l.34.34c.28.36.72.57,1.17.57.39,0,.79-.16,1.07-.44l.44-.44Z"/><path class="cls-3" d="M44.53,46.4v4.27l-.44.44c-.28.28-.67.44-1.07.44-.45,0-.89-.21-1.17-.57l-.34-.34v-4.25l1.51,1.51,1.51-1.51Z"/><path class="cls-3" d="M44.53,37.41v9l-1.51,1.51-1.51-1.51v-9.02l.34.34c.28.36.72.57,1.17.57.39,0,.79-.16,1.07-.44l.44-.44Z"/><path class="cls-3" d="M44.53,33.14v4.27l-.44.44c-.28.28-.67.44-1.07.44-.45,0-.89-.21-1.17-.57l-.34-.34v-4.25l1.51,1.51,1.51-1.51Z"/><path class="cls-3" d="M44.53,23.53v9.61l-1.51,1.51-1.51-1.51v-9.61c0-.83.69-1.51,1.51-1.51s1.51.68,1.51,1.51Z"/><path class="cls-3" d="M41.51,58.5v2.98h-8.43c.82,0,1.49-.66,1.49-1.49s-.67-1.49-1.49-1.49h8.43Z"/><path class="cls-3" d="M41.51,46.4v4.25l-6.19-6.17c-.58-.58-.58-1.55,0-2.13.59-.58,1.56-.58,2.13,0l4.06,4.06Z"/><path class="cls-3" d="M41.51,33.14v4.25l-6.19-6.17c-.58-.58-.58-1.55,0-2.12s1.56-.59,2.13,0l4.06,4.05Z"/><path class="cls-3" d="M35.97,7.25c.34.5.34,1.15,0,1.65-.08.12-.15.25-.23.37-.06.09-.11.18-.15.27-.09.17-.17.35-.25.52-.08.16-.15.33-.21.49-.07.16-.12.34-.18.51-.16.53-.27,1.08-.33,1.64-.02.12-.03.25-.03.37,0,.16-.02.33-.02.5,0,.83-.67,1.49-1.49,1.49-4.67,0-8.46,3.8-8.46,8.46,0,1.22.27,2.42.79,3.55.17.37.18.78.05,1.15-.14.37-.42.67-.79.84-3.06,1.36-5.02,4.39-5.02,7.72s1.96,6.36,5.02,7.73c.37.15.64.46.79.84.13.37.12.79-.05,1.15-.52,1.12-.79,2.32-.79,3.55,0,4.66,3.79,8.46,8.46,8.46.82,0,1.49.66,1.49,1.49s-.67,1.49-1.49,1.49c-1.85,0-3.59-.44-5.12-1.22v-.27c0-.83-.69-1.51-1.51-1.51-.3,0-.58.09-.81.24-.09-.07-.17-.14-.26-.22-.81-.73-1.52-1.59-2.09-2.53-.09-.13-.16-.27-.23-.4-.12-.21-.23-.42-.33-.63-.07-.14-.13-.28-.19-.42,0-.02-.02-.03-.02-.04-.07-.16-.13-.34-.19-.5-.07-.17-.12-.36-.18-.53-.06-.18-.11-.37-.15-.55-.24-.91-.37-1.87-.37-2.85,0-1.19.19-2.35.55-3.48-3.39-2.06-5.52-5.76-5.52-9.78s2.12-7.73,5.52-9.78c-.36-1.12-.55-2.3-.55-3.48,0-5.83,4.39-10.66,10.03-11.35.02-.17.05-.36.08-.53.09-.52.21-1.03.37-1.53.21-.67.49-1.33.83-1.94.48-.9,1.09-1.73,1.8-2.47.45.47.87.99,1.23,1.55Z"/><path class="cls-3" d="M35.74,9.28c-.06.1-.11.18-.15.27.05-.09.1-.18.15-.27Z"/><path class="cls-3" d="M35.34,10.07c-.08.16-.14.33-.21.49.06-.16.13-.33.21-.49Z"/><path class="cls-3" d="M35.13,10.56c-.07.17-.12.34-.18.51.06-.17.12-.35.18-.51Z"/><path class="cls-3" d="M34.62,12.71c-.02.12-.03.24-.03.37,0-.12,0-.24.03-.37Z"/><path class="cls-3" d="M34.74,5.71c-.71.74-1.32,1.57-1.8,2.47-1.61-1.93-3.97-3.06-6.5-3.06-4.66,0-8.46,3.8-8.46,8.46,0,.83-.66,1.49-1.49,1.49-4.66,0-8.46,3.8-8.46,8.46,0,1.22.27,2.42.8,3.55.16.37.18.78.04,1.15-.13.37-.42.67-.79.84-3.05,1.36-5.02,4.39-5.02,7.72s1.97,6.36,5.02,7.73c.37.15.65.46.79.84.14.37.12.79-.04,1.15-.53,1.12-.8,2.32-.8,3.55,0,4.66,3.8,8.46,8.46,8.46h8.88c.09.08.17.15.26.22-.42.27-.7.74-.7,1.27v1.49h-8.44c-6.31,0-11.44-5.13-11.44-11.44,0-1.19.18-2.35.55-3.48C2.22,44.51.09,40.81.09,36.78s2.12-7.73,5.52-9.78c-.37-1.12-.55-2.3-.55-3.48,0-5.83,4.38-10.66,10.03-11.35.69-5.65,5.52-10.03,11.35-10.03,3.17,0,6.15,1.31,8.3,3.57Z"/><path class="cls-3" d="M33.08,61.48h-5.12v-1.22c1.54.78,3.28,1.22,5.12,1.22Z"/><path class="cls-3" d="M32.95,8.18c-.34.62-.62,1.27-.83,1.94-.16.5-.29,1.01-.37,1.53-.03.17-.06.36-.08.53-5.64.69-10.03,5.52-10.03,11.35,0,1.18.19,2.35.55,3.48-3.39,2.05-5.52,5.76-5.52,9.78s2.12,7.73,5.52,9.78c-.36,1.12-.55,2.29-.55,3.48,0,.98.12,1.94.37,2.85.05.18.1.37.15.55s.12.36.18.53c.06.17.12.34.19.5,0,0,0,.02.02.04.06.14.12.29.19.42.1.21.2.42.33.63.07.13.15.27.23.4.57.94,1.28,1.8,2.09,2.53h-8.88c-4.66,0-8.46-3.8-8.46-8.46,0-1.23.27-2.42.8-3.55.16-.37.18-.78.04-1.15-.13-.37-.42-.68-.79-.84-3.05-1.36-5.02-4.39-5.02-7.73s1.97-6.35,5.02-7.72c.37-.16.65-.46.79-.84.14-.37.12-.79-.04-1.15-.53-1.12-.8-2.33-.8-3.55,0-4.66,3.8-8.46,8.46-8.46.83,0,1.49-.66,1.49-1.49,0-4.66,3.8-8.46,8.46-8.46,2.53,0,4.89,1.12,6.5,3.06Z"/><path class="cls-3" d="M32.12,10.12c-.16.5-.29,1.01-.37,1.53.09-.52.21-1.03.37-1.53Z"/><path class="cls-3" d="M27.96,61.48v21.71c0,.83-.69,1.51-1.51,1.51s-1.51-.68-1.51-1.51v-21.71h3.02Z"/><path class="cls-3" d="M27.96,60.26v1.22h-3.02v-1.49c0-.53.28-1,.7-1.27.7.61,1.48,1.12,2.32,1.54Z"/><path class="cls-3" d="M27.96,59.99v.27c-.84-.41-1.61-.93-2.32-1.54.23-.15.51-.24.81-.24.82,0,1.51.68,1.51,1.51Z"/><path class="cls-3" d="M23.07,55.57c.07.13.14.27.23.4-.08-.13-.16-.27-.23-.4Z"/><path class="cls-3" d="M22.74,54.94c-.07-.13-.13-.28-.19-.42.06.14.12.28.19.42Z"/><path class="cls-3" d="M22.34,53.98c.06.16.12.34.19.5-.07-.16-.13-.33-.19-.5Z"/><path class="cls-3" d="M22.15,53.45c.06.17.12.36.18.53-.07-.17-.12-.35-.18-.53Z"/><path class="cls-3" d="M22,52.9c.05.18.1.37.15.55-.06-.18-.11-.37-.15-.55Z"/></g></g></g></svg>