<?xml version="1.0" encoding="UTF-8"?><svg id="_レイヤー_2" xmlns="http://www.w3.org/2000/svg" xmlns:xlink="http://www.w3.org/1999/xlink" viewBox="0 0 86 86"><defs><style>.cls-1{clip-path:url(#clippath);}.cls-2{fill:none;}.cls-2,.cls-3,.cls-4{stroke-width:0px;}.cls-4{fill:#eddb3a;}</style><clipPath id="clippath"><rect class="cls-2" width="86" height="86"/></clipPath></defs><g id="_アイコン類"><g id="_4"><g class="cls-1"><path class="cls-3" d="M71.46,49.74h3.63c0,5.72-4.65,10.37-10.37,10.37s-10.37-4.66-10.37-10.37h3.63c0,3.72,3.03,6.73,6.73,6.73s6.74-3.02,6.74-6.73Z"/><path class="cls-3" d="M81.1,46.19l4.69,33.81c0,1.65-1.34,3-3,3h-37c-1.65,0-3-1.35-3-3l.02-.25.55-3.95H3.65c-2,0-3.62-1.63-3.62-3.62l.03-.34L9.93,20.65c.1-1.9,1.69-3.41,3.61-3.41h3.46c.34-7.91,6.85-14.24,14.85-14.24s14.5,6.33,14.84,14.24h3.47c1.92,0,3.49,1.5,3.6,3.4l4.79,22.71h19.54c1.6,0,2.92,1.27,3,2.85ZM82.05,79.36l-4.52-32.37h-26.48l-4.52,32.37h35.51ZM54.84,43.34l-4.69-22.3v-.2l-36.6.02-.02.33L3.69,72.18l40.18-.02,3.61-25.97c.08-1.58,1.4-2.85,3-2.85h4.36ZM20.65,17.24h22.41c-.34-5.9-5.22-10.6-11.2-10.6s-10.87,4.7-11.2,10.6Z"/><path class="cls-4" d="M50.15,21.05l4.69,22.3h-4.36c-1.6,0-2.92,1.27-3,2.85l-3.61,25.97-40.18.02L13.53,21.2l.02-.33,36.6-.02v.2Z"/></g></g></g></svg>