<?xml version="1.0" encoding="UTF-8"?><svg id="_レイヤー_2" xmlns="http://www.w3.org/2000/svg" viewBox="0 0 127.94 40.22"><defs><style>.cls-1{stroke-miterlimit:10;}.cls-1,.cls-2{fill:none;stroke:#000;}.cls-3{fill:#198745;}.cls-3,.cls-4,.cls-5{stroke-width:0px;}.cls-4{fill:#1e468c;}.cls-5{fill:#f1d229;}</style></defs><g id="_レイヤー_1-2"><path class="cls-5" d="M2.5,3.4h6.56l15.37,23.63V3.4h6.84v35.91h-6.58L9.34,15.76v23.56H2.5V3.4Z"/><path class="cls-4" d="M37.49,3.4h19.6v6.69h-12.82v6.49h12.82v6.57h-12.82v9.45h12.82v6.71h-19.6V3.4Z"/><path class="cls-3" d="M61.74,3.4h6.73l5.19,22.92,6.41-22.92h5.68l6.51,22.92,5.14-22.92h6.73l-8.09,35.91h-6.56l-6.62-23.22-6.49,23.22h-6.49L61.74,3.4Z"/><path class="cls-5" d="M127.31,8.29l-5.06,4.47c-1.78-2.47-3.59-3.71-5.43-3.71-.9,0-1.63.24-2.2.72-.57.48-.86,1.02-.86,1.62s.2,1.17.61,1.71c.55.72,2.23,2.25,5.01,4.61,2.61,2.18,4.19,3.56,4.74,4.13,1.39,1.4,2.37,2.74,2.95,4.02.58,1.28.87,2.67.87,4.19,0,2.95-1.02,5.38-3.06,7.3-2.04,1.92-4.69,2.88-7.97,2.88-2.56,0-4.79-.63-6.68-1.88-1.9-1.25-3.52-3.22-4.88-5.91l5.75-3.47c1.73,3.17,3.72,4.76,5.97,4.76,1.17,0,2.16-.34,2.96-1.03s1.2-1.47,1.2-2.37c0-.81-.3-1.63-.9-2.44-.6-.81-1.93-2.06-3.99-3.74-3.91-3.19-6.44-5.65-7.58-7.39-1.14-1.73-1.71-3.46-1.71-5.19,0-2.49.95-4.63,2.85-6.41s4.24-2.67,7.03-2.67c1.79,0,3.5.42,5.12,1.25,1.62.83,3.38,2.34,5.27,4.54Z"/><path class="cls-2" d="M.5,1.4h6.56l15.37,23.63V1.4h6.84v35.91h-6.58L7.34,13.76v23.56H.5V1.4Z"/><path class="cls-1" d="M35.49,1.4h19.6v6.69h-12.82v6.49h12.82v6.57h-12.82v9.45h12.82v6.71h-19.6V1.4Z"/><path class="cls-1" d="M59.74,1.4h6.73l5.19,22.92,6.41-22.92h5.68l6.51,22.92,5.14-22.92h6.73l-8.09,35.91h-6.56l-6.62-23.22-6.49,23.22h-6.49L59.74,1.4Z"/><path class="cls-1" d="M125.31,6.29l-5.06,4.47c-1.78-2.47-3.59-3.71-5.43-3.71-.9,0-1.63.24-2.2.72-.57.48-.86,1.02-.86,1.62s.2,1.17.61,1.71c.55.72,2.23,2.25,5.01,4.61,2.61,2.18,4.19,3.56,4.74,4.13,1.39,1.4,2.37,2.74,2.95,4.02.58,1.28.87,2.67.87,4.19,0,2.95-1.02,5.38-3.06,7.3-2.04,1.92-4.69,2.88-7.97,2.88-2.56,0-4.79-.63-6.68-1.88-1.9-1.25-3.52-3.22-4.88-5.91l5.75-3.47c1.73,3.17,3.72,4.76,5.97,4.76,1.17,0,2.16-.34,2.96-1.03s1.2-1.47,1.2-2.37c0-.81-.3-1.63-.9-2.44-.6-.81-1.93-2.06-3.99-3.74-3.91-3.19-6.44-5.65-7.58-7.39-1.14-1.73-1.71-3.46-1.71-5.19,0-2.49.95-4.63,2.85-6.41s4.24-2.67,7.03-2.67c1.79,0,3.5.42,5.12,1.25,1.62.83,3.38,2.34,5.27,4.54Z"/></g></svg>